<svg width="1514" height="1005" viewBox="0 0 1514 1005" fill="none" xmlns="http://www.w3.org/2000/svg">
<g filter="url(#filter0_d_3_2)">
<path d="M552.204 572.313L540.021 575.11L545.614 599.476L557.797 596.68L552.204 572.313ZM557.797 596.68C626.231 580.971 679.685 573.008 734.149 572.884C788.632 572.76 844.689 580.479 918.31 596.707L923.691 572.293C849.125 555.857 791.101 547.754 734.092 547.884C677.062 548.014 621.61 556.381 552.204 572.313L557.797 596.68Z" fill="white"/>
</g>
<g filter="url(#filter1_d_3_2)">
<path d="M718.284 407L748.864 424.026L597.58 695.75L567 678.724L718.284 407Z" fill="white"/>
<path d="M722 423.985L752.602 407L903.526 678.925L872.924 695.91L722 423.985Z" fill="white"/>
<path d="M718 407H753V423H718V407Z" fill="white"/>
</g>
<g filter="url(#filter2_d_3_2)">
<path d="M718.689 226.166L756.587 247.315L484.898 734.15L447 713L718.689 226.166Z" fill="white"/>
<path d="M714 247.082L751.935 226L1022.76 713.318L984.82 734.4L714 247.082Z" fill="white"/>
<path d="M719 226H752V250H719V226Z" fill="white"/>
</g>
<defs>
<filter id="filter0_d_3_2" x="536.021" y="547.882" width="391.67" height="59.5937" filterUnits="userSpaceOnUse" color-interpolation-filters="sRGB">
<feFlood flood-opacity="0" result="BackgroundImageFix"/>
<feColorMatrix in="SourceAlpha" type="matrix" values="0 0 0 0 0 0 0 0 0 0 0 0 0 0 0 0 0 0 127 0" result="hardAlpha"/>
<feOffset dy="4"/>
<feGaussianBlur stdDeviation="2"/>
<feComposite in2="hardAlpha" operator="out"/>
<feColorMatrix type="matrix" values="0 0 0 0 0 0 0 0 0 0 0 0 0 0 0 0 0 0 0.25 0"/>
<feBlend mode="normal" in2="BackgroundImageFix" result="effect1_dropShadow_3_2"/>
<feBlend mode="normal" in="SourceGraphic" in2="effect1_dropShadow_3_2" result="shape"/>
</filter>
<filter id="filter1_d_3_2" x="563" y="407" width="344.526" height="296.91" filterUnits="userSpaceOnUse" color-interpolation-filters="sRGB">
<feFlood flood-opacity="0" result="BackgroundImageFix"/>
<feColorMatrix in="SourceAlpha" type="matrix" values="0 0 0 0 0 0 0 0 0 0 0 0 0 0 0 0 0 0 127 0" result="hardAlpha"/>
<feOffset dy="4"/>
<feGaussianBlur stdDeviation="2"/>
<feComposite in2="hardAlpha" operator="out"/>
<feColorMatrix type="matrix" values="0 0 0 0 0 0 0 0 0 0 0 0 0 0 0 0 0 0 0.25 0"/>
<feBlend mode="normal" in2="BackgroundImageFix" result="effect1_dropShadow_3_2"/>
<feBlend mode="normal" in="SourceGraphic" in2="effect1_dropShadow_3_2" result="shape"/>
</filter>
<filter id="filter2_d_3_2" x="443" y="226" width="583.755" height="516.4" filterUnits="userSpaceOnUse" color-interpolation-filters="sRGB">
<feFlood flood-opacity="0" result="BackgroundImageFix"/>
<feColorMatrix in="SourceAlpha" type="matrix" values="0 0 0 0 0 0 0 0 0 0 0 0 0 0 0 0 0 0 127 0" result="hardAlpha"/>
<feOffset dy="4"/>
<feGaussianBlur stdDeviation="2"/>
<feComposite in2="hardAlpha" operator="out"/>
<feColorMatrix type="matrix" values="0 0 0 0 0 0 0 0 0 0 0 0 0 0 0 0 0 0 0.25 0"/>
<feBlend mode="normal" in2="BackgroundImageFix" result="effect1_dropShadow_3_2"/>
<feBlend mode="normal" in="SourceGraphic" in2="effect1_dropShadow_3_2" result="shape"/>
</filter>
</defs>
</svg>
