<svg xmlns="http://www.w3.org/2000/svg" xmlns:xlink="http://www.w3.org/1999/xlink" width="100" zoomAndPan="magnify" viewBox="0 0 75 30.000001" height="40" preserveAspectRatio="xMidYMid meet" version="1.0"><defs><g/></defs><g fill="#ffffff" fill-opacity="1"><g transform="translate(2.057774, 19.30514)"><g><path d="M 1.796875 -1.203125 C 0.890625 -2.203125 0.4375 -3.414062 0.4375 -4.84375 C 0.4375 -6.28125 0.890625 -7.488281 1.796875 -8.46875 C 2.703125 -9.457031 3.851562 -9.953125 5.25 -9.953125 C 6.53125 -9.953125 7.582031 -9.492188 8.40625 -8.578125 L 8.453125 -8.578125 L 8.453125 -9.671875 L 11.75 -9.671875 L 11.75 4.90625 L 8.40625 4.90625 L 8.40625 -0.921875 C 7.582031 -0.117188 6.53125 0.28125 5.25 0.28125 C 3.851562 0.28125 2.703125 -0.210938 1.796875 -1.203125 Z M 4.59375 -6.46875 C 4.1875 -6.050781 3.984375 -5.507812 3.984375 -4.84375 C 3.984375 -4.175781 4.195312 -3.628906 4.625 -3.203125 C 5.0625 -2.773438 5.601562 -2.5625 6.25 -2.5625 C 6.875 -2.5625 7.398438 -2.773438 7.828125 -3.203125 C 8.265625 -3.628906 8.484375 -4.175781 8.484375 -4.84375 C 8.484375 -5.5 8.269531 -6.039062 7.84375 -6.46875 C 7.425781 -6.894531 6.894531 -7.109375 6.25 -7.109375 C 5.5625 -7.109375 5.007812 -6.894531 4.59375 -6.46875 Z M 4.59375 -6.46875 "/></g></g></g><g fill="#ffffff" fill-opacity="1"><g transform="translate(13.158534, 19.30514)"><g><path d="M 4.28125 -9.671875 L 4.28125 -5.078125 C 4.28125 -4.117188 4.425781 -3.4375 4.71875 -3.03125 C 5.007812 -2.632812 5.5 -2.4375 6.1875 -2.4375 C 6.875 -2.4375 7.363281 -2.632812 7.65625 -3.03125 C 7.945312 -3.4375 8.09375 -4.117188 8.09375 -5.078125 L 8.09375 -9.671875 L 11.421875 -9.671875 L 11.421875 -4.265625 C 11.421875 -2.648438 11.003906 -1.488281 10.171875 -0.78125 C 9.335938 -0.0703125 8.007812 0.28125 6.1875 0.28125 C 4.363281 0.28125 3.03125 -0.0703125 2.1875 -0.78125 C 1.351562 -1.488281 0.9375 -2.648438 0.9375 -4.265625 L 0.9375 -9.671875 Z M 4.28125 -9.671875 "/></g></g></g><g fill="#ffffff" fill-opacity="1"><g transform="translate(23.75039, 19.30514)"><g><path d="M 1.453125 -15.0625 C 1.835938 -15.457031 2.300781 -15.65625 2.84375 -15.65625 C 3.382812 -15.65625 3.847656 -15.457031 4.234375 -15.0625 C 4.628906 -14.675781 4.828125 -14.210938 4.828125 -13.671875 C 4.828125 -13.128906 4.628906 -12.660156 4.234375 -12.265625 C 3.847656 -11.878906 3.382812 -11.6875 2.84375 -11.6875 C 2.300781 -11.6875 1.835938 -11.878906 1.453125 -12.265625 C 1.066406 -12.660156 0.875 -13.128906 0.875 -13.671875 C 0.875 -14.210938 1.066406 -14.675781 1.453125 -15.0625 Z M 1.125 -9.671875 L 1.125 0 L 4.46875 0 L 4.46875 -9.671875 Z M 1.125 -9.671875 "/></g></g></g><g fill="#ffffff" fill-opacity="1"><g transform="translate(27.669945, 19.30514)"><g><path d="M 6.28125 -7.21875 C 5.65625 -7.21875 5.113281 -6.984375 4.65625 -6.515625 C 4.207031 -6.054688 3.984375 -5.5 3.984375 -4.84375 C 3.984375 -4.175781 4.207031 -3.609375 4.65625 -3.140625 C 5.113281 -2.679688 5.65625 -2.453125 6.28125 -2.453125 C 6.582031 -2.453125 6.867188 -2.488281 7.140625 -2.5625 C 7.410156 -2.632812 7.609375 -2.710938 7.734375 -2.796875 L 7.90625 -2.90625 L 9.03125 -0.578125 C 8.945312 -0.515625 8.828125 -0.4375 8.671875 -0.34375 C 8.515625 -0.25 8.15625 -0.125 7.59375 0.03125 C 7.03125 0.195312 6.429688 0.28125 5.796875 0.28125 C 4.367188 0.28125 3.117188 -0.21875 2.046875 -1.21875 C 0.972656 -2.21875 0.4375 -3.414062 0.4375 -4.8125 C 0.4375 -6.21875 0.972656 -7.425781 2.046875 -8.4375 C 3.117188 -9.445312 4.367188 -9.953125 5.796875 -9.953125 C 6.429688 -9.953125 7.019531 -9.875 7.5625 -9.71875 C 8.101562 -9.570312 8.488281 -9.425781 8.71875 -9.28125 L 9.03125 -9.046875 L 7.90625 -6.765625 C 7.488281 -7.066406 6.945312 -7.21875 6.28125 -7.21875 Z M 6.28125 -7.21875 "/></g></g></g><g fill="#ffffff" fill-opacity="1"><g transform="translate(35.151828, 19.30514)"><g><path d="M 12.1875 -9.671875 L 7.578125 -5.046875 L 12.640625 0 L 8.328125 0 L 4.46875 -3.859375 L 4.46875 0 L 1.125 0 L 1.125 -16.21875 L 4.46875 -16.21875 L 4.46875 -6.296875 L 7.84375 -9.671875 Z M 12.1875 -9.671875 "/></g></g></g><g fill="#ffffff" fill-opacity="1"><g transform="translate(45.5552, 19.30514)"><g><path d="M 1.125 0 L 1.125 -16.21875 L 4.46875 -16.21875 L 4.46875 0 Z M 1.125 0 "/></g></g></g><g fill="#ffffff" fill-opacity="1"><g transform="translate(49.380519, 19.30514)"><g><path d="M 2.046875 -1.140625 C 0.972656 -2.097656 0.4375 -3.328125 0.4375 -4.828125 C 0.4375 -6.328125 0.992188 -7.554688 2.109375 -8.515625 C 3.234375 -9.472656 4.617188 -9.953125 6.265625 -9.953125 C 7.878906 -9.953125 9.242188 -9.46875 10.359375 -8.5 C 11.472656 -7.53125 12.03125 -6.304688 12.03125 -4.828125 C 12.03125 -3.347656 11.484375 -2.125 10.390625 -1.15625 C 9.304688 -0.195312 7.929688 0.28125 6.265625 0.28125 C 4.523438 0.28125 3.117188 -0.191406 2.046875 -1.140625 Z M 4.625 -6.46875 C 4.195312 -6.039062 3.984375 -5.492188 3.984375 -4.828125 C 3.984375 -4.160156 4.1875 -3.613281 4.59375 -3.1875 C 5.007812 -2.769531 5.5625 -2.5625 6.25 -2.5625 C 6.894531 -2.5625 7.425781 -2.773438 7.84375 -3.203125 C 8.269531 -3.628906 8.484375 -4.171875 8.484375 -4.828125 C 8.484375 -5.492188 8.265625 -6.039062 7.828125 -6.46875 C 7.398438 -6.894531 6.875 -7.109375 6.25 -7.109375 C 5.601562 -7.109375 5.0625 -6.894531 4.625 -6.46875 Z M 4.625 -6.46875 "/></g></g></g><g fill="#ffffff" fill-opacity="1"><g transform="translate(60.066622, 19.30514)"><g><path d="M 0.703125 2.375 L 3.4375 1.03125 C 3.9375 1.863281 4.804688 2.28125 6.046875 2.28125 C 6.628906 2.28125 7.164062 2.09375 7.65625 1.71875 C 8.15625 1.351562 8.40625 0.785156 8.40625 0.015625 L 8.40625 -0.703125 C 7.820312 -0.046875 6.769531 0.28125 5.25 0.28125 C 3.851562 0.28125 2.703125 -0.207031 1.796875 -1.1875 C 0.890625 -2.175781 0.4375 -3.390625 0.4375 -4.828125 C 0.4375 -6.265625 0.890625 -7.476562 1.796875 -8.46875 C 2.703125 -9.457031 3.851562 -9.953125 5.25 -9.953125 C 6.488281 -9.953125 7.523438 -9.570312 8.359375 -8.8125 L 8.40625 -8.8125 L 8.40625 -9.671875 L 11.75 -9.671875 L 11.75 0.265625 C 11.75 1.835938 11.226562 3.050781 10.1875 3.90625 C 9.144531 4.757812 7.765625 5.1875 6.046875 5.1875 C 3.285156 5.1875 1.503906 4.25 0.703125 2.375 Z M 4.625 -6.46875 C 4.195312 -6.039062 3.984375 -5.492188 3.984375 -4.828125 C 3.984375 -4.160156 4.1875 -3.613281 4.59375 -3.1875 C 5.007812 -2.769531 5.5625 -2.5625 6.25 -2.5625 C 6.894531 -2.5625 7.425781 -2.773438 7.84375 -3.203125 C 8.269531 -3.628906 8.484375 -4.171875 8.484375 -4.828125 C 8.484375 -5.492188 8.265625 -6.039062 7.828125 -6.46875 C 7.398438 -6.894531 6.875 -7.109375 6.25 -7.109375 C 5.601562 -7.109375 5.0625 -6.894531 4.625 -6.46875 Z M 4.625 -6.46875 "/></g></g></g></svg>