<svg xmlns="http://www.w3.org/2000/svg" xmlns:xlink="http://www.w3.org/1999/xlink" width="1920.183" height="1075.636" viewBox="0 0 1920.183 1075.636">
  <defs>
    <linearGradient id="linear-gradient" x1="0.5" x2="0.5" y2="1" gradientUnits="objectBoundingBox">
      <stop offset="0" stop-color="#000"/>
      <stop offset="1" stop-color="#000"/>
    </linearGradient>
    <clipPath id="clip-path">
      <path id="Path_199" data-name="Path 199" d="M-533.031,278.516s95.269,204.193,401.21,161.147,419.656-32.1,544.188,96.892,343.977,107.54,572.909,67.066,360.19,68.158,401.79,142.968c.041-2.4-.074-1075.621-.074-1075.621l-1920,.011Z" transform="translate(533 329)" fill="#004953"/>
    </clipPath>
  </defs>
  <g id="Group_112" data-name="Group 112" transform="translate(0.089 0.042)">
    <path id="Path_195" data-name="Path 195" d="M-533.089,278.364s100.43,239.944,401.206,191.477,442.068,9.577,537.63,114.941,352.091,94.329,580.987,52.374S1349.9,678.95,1387.094,746.594c.016.016-.373-1075.609-.373-1075.609l-1919.766-.027Z" transform="translate(533 329)" opacity=".2" fill="#004953"/>
    <path id="Path_194" data-name="Path 194" d="M-533.031,278.516s95.269,204.193,401.21,161.147,419.656-32.1,544.188,96.892,343.977,107.54,572.909,67.066,360.19,68.158,401.79,142.968c.041-2.4-.074-1075.621-.074-1075.621l-1920,.011Z" transform="translate(533 329)" fill="#004953"/>
  </g>
</svg>
