<svg width="849" height="320" viewBox="0 0 849 320" fill="none" xmlns="http://www.w3.org/2000/svg">
<path d="M106.592 121.16H67.68L60.512 141H48.224L80.48 52.296H93.92L126.048 141H113.76L106.592 121.16ZM103.264 111.688L87.136 66.632L71.008 111.688H103.264ZM151.754 46.28V141H140.106V46.28H151.754ZM197.718 130.248L219.478 70.856H231.894L204.374 141H190.806L163.286 70.856H175.83L197.718 130.248ZM239.004 105.672C239.004 98.504 240.455 92.232 243.356 86.856C246.257 81.3947 250.225 77.1707 255.26 74.184C260.38 71.1973 266.055 69.704 272.284 69.704C278.428 69.704 283.761 71.0267 288.284 73.672C292.807 76.3173 296.177 79.6453 298.396 83.656V70.856H310.172V141H298.396V127.944C296.092 132.04 292.636 135.453 288.028 138.184C283.505 140.829 278.215 142.152 272.156 142.152C265.927 142.152 260.295 140.616 255.26 137.544C250.225 134.472 246.257 130.163 243.356 124.616C240.455 119.069 239.004 112.755 239.004 105.672ZM298.396 105.8C298.396 100.509 297.329 95.9013 295.196 91.976C293.063 88.0507 290.161 85.064 286.492 83.016C282.908 80.8827 278.94 79.816 274.588 79.816C270.236 79.816 266.268 80.84 262.684 82.888C259.1 84.936 256.241 87.9227 254.108 91.848C251.975 95.7733 250.908 100.381 250.908 105.672C250.908 111.048 251.975 115.741 254.108 119.752C256.241 123.677 259.1 126.707 262.684 128.84C266.268 130.888 270.236 131.912 274.588 131.912C278.94 131.912 282.908 130.888 286.492 128.84C290.161 126.707 293.063 123.677 295.196 119.752C297.329 115.741 298.396 111.091 298.396 105.8ZM341.504 82.248C343.552 78.2373 346.453 75.1227 350.208 72.904C354.048 70.6853 358.699 69.576 364.16 69.576V81.608H361.088C348.032 81.608 341.504 88.6907 341.504 102.856V141H329.856V70.856H341.504V82.248Z" fill="white"/>
<path d="M62.592 266.16H23.68L16.512 286H4.224L36.48 197.296H49.92L82.048 286H69.76L62.592 266.16ZM59.264 256.688L43.136 211.632L27.008 256.688H59.264ZM107.754 228.784C110.058 224.773 113.471 221.445 117.994 218.8C122.602 216.069 127.935 214.704 133.994 214.704C140.223 214.704 145.855 216.197 150.89 219.184C156.01 222.171 160.021 226.395 162.922 231.856C165.823 237.232 167.274 243.504 167.274 250.672C167.274 257.755 165.823 264.069 162.922 269.616C160.021 275.163 156.01 279.472 150.89 282.544C145.855 285.616 140.223 287.152 133.994 287.152C128.021 287.152 122.73 285.829 118.122 283.184C113.599 280.453 110.143 277.083 107.754 273.072V319.28H96.106V215.856H107.754V228.784ZM155.37 250.672C155.37 245.381 154.303 240.773 152.17 236.848C150.037 232.923 147.135 229.936 143.466 227.888C139.882 225.84 135.914 224.816 131.562 224.816C127.295 224.816 123.327 225.883 119.658 228.016C116.074 230.064 113.173 233.093 110.954 237.104C108.821 241.029 107.754 245.595 107.754 250.8C107.754 256.091 108.821 260.741 110.954 264.752C113.173 268.677 116.074 271.707 119.658 273.84C123.327 275.888 127.295 276.912 131.562 276.912C135.914 276.912 139.882 275.888 143.466 273.84C147.135 271.707 150.037 268.677 152.17 264.752C154.303 260.741 155.37 256.048 155.37 250.672ZM194.254 228.784C196.558 224.773 199.971 221.445 204.494 218.8C209.102 216.069 214.435 214.704 220.494 214.704C226.723 214.704 232.355 216.197 237.39 219.184C242.51 222.171 246.521 226.395 249.422 231.856C252.323 237.232 253.774 243.504 253.774 250.672C253.774 257.755 252.323 264.069 249.422 269.616C246.521 275.163 242.51 279.472 237.39 282.544C232.355 285.616 226.723 287.152 220.494 287.152C214.521 287.152 209.23 285.829 204.622 283.184C200.099 280.453 196.643 277.083 194.254 273.072V319.28H182.606V215.856H194.254V228.784ZM241.87 250.672C241.87 245.381 240.803 240.773 238.67 236.848C236.537 232.923 233.635 229.936 229.966 227.888C226.382 225.84 222.414 224.816 218.062 224.816C213.795 224.816 209.827 225.883 206.158 228.016C202.574 230.064 199.673 233.093 197.454 237.104C195.321 241.029 194.254 245.595 194.254 250.8C194.254 256.091 195.321 260.741 197.454 264.752C199.673 268.677 202.574 271.707 206.158 273.84C209.827 275.888 213.795 276.912 218.062 276.912C222.414 276.912 226.382 275.888 229.966 273.84C233.635 271.707 236.537 268.677 238.67 264.752C240.803 260.741 241.87 256.048 241.87 250.672ZM280.754 191.28V286H269.106V191.28H280.754ZM306.622 204.464C304.403 204.464 302.526 203.696 300.99 202.16C299.454 200.624 298.686 198.747 298.686 196.528C298.686 194.309 299.454 192.432 300.99 190.896C302.526 189.36 304.403 188.592 306.622 188.592C308.755 188.592 310.547 189.36 311.998 190.896C313.534 192.432 314.302 194.309 314.302 196.528C314.302 198.747 313.534 200.624 311.998 202.16C310.547 203.696 308.755 204.464 306.622 204.464ZM312.254 215.856V286H300.606V215.856H312.254ZM327.754 250.8C327.754 243.547 329.205 237.232 332.106 231.856C335.007 226.395 339.018 222.171 344.138 219.184C349.343 216.197 355.274 214.704 361.93 214.704C370.549 214.704 377.631 216.795 383.178 220.976C388.81 225.157 392.522 230.96 394.314 238.384H381.77C380.575 234.117 378.229 230.747 374.73 228.272C371.317 225.797 367.05 224.56 361.93 224.56C355.274 224.56 349.898 226.864 345.802 231.472C341.706 235.995 339.658 242.437 339.658 250.8C339.658 259.248 341.706 265.776 345.802 270.384C349.898 274.992 355.274 277.296 361.93 277.296C367.05 277.296 371.317 276.101 374.73 273.712C378.143 271.323 380.49 267.909 381.77 263.472H394.314C392.437 270.64 388.682 276.4 383.05 280.752C377.418 285.019 370.378 287.152 361.93 287.152C355.274 287.152 349.343 285.659 344.138 282.672C339.018 279.685 335.007 275.461 332.106 270C329.205 264.539 327.754 258.139 327.754 250.8ZM405.504 250.672C405.504 243.504 406.955 237.232 409.856 231.856C412.757 226.395 416.725 222.171 421.76 219.184C426.88 216.197 432.555 214.704 438.784 214.704C444.928 214.704 450.261 216.027 454.784 218.672C459.307 221.317 462.677 224.645 464.896 228.656V215.856H476.672V286H464.896V272.944C462.592 277.04 459.136 280.453 454.528 283.184C450.005 285.829 444.715 287.152 438.656 287.152C432.427 287.152 426.795 285.616 421.76 282.544C416.725 279.472 412.757 275.163 409.856 269.616C406.955 264.069 405.504 257.755 405.504 250.672ZM464.896 250.8C464.896 245.509 463.829 240.901 461.696 236.976C459.563 233.051 456.661 230.064 452.992 228.016C449.408 225.883 445.44 224.816 441.088 224.816C436.736 224.816 432.768 225.84 429.184 227.888C425.6 229.936 422.741 232.923 420.608 236.848C418.475 240.773 417.408 245.381 417.408 250.672C417.408 256.048 418.475 260.741 420.608 264.752C422.741 268.677 425.6 271.707 429.184 273.84C432.768 275.888 436.736 276.912 441.088 276.912C445.44 276.912 449.408 275.888 452.992 273.84C456.661 271.707 459.563 268.677 461.696 264.752C463.829 260.741 464.896 256.091 464.896 250.8ZM510.564 225.456V266.8C510.564 270.213 511.289 272.645 512.74 274.096C514.191 275.461 516.708 276.144 520.292 276.144H528.868V286H518.372C511.887 286 507.023 284.507 503.78 281.52C500.537 278.533 498.916 273.627 498.916 266.8V225.456H489.828V215.856H498.916V198.192H510.564V215.856H528.868V225.456H510.564ZM548.997 204.464C546.778 204.464 544.901 203.696 543.365 202.16C541.829 200.624 541.061 198.747 541.061 196.528C541.061 194.309 541.829 192.432 543.365 190.896C544.901 189.36 546.778 188.592 548.997 188.592C551.13 188.592 552.922 189.36 554.373 190.896C555.909 192.432 556.677 194.309 556.677 196.528C556.677 198.747 555.909 200.624 554.373 202.16C552.922 203.696 551.13 204.464 548.997 204.464ZM554.629 215.856V286H542.981V215.856H554.629ZM605.073 287.152C598.502 287.152 592.529 285.659 587.153 282.672C581.862 279.685 577.681 275.461 574.609 270C571.622 264.453 570.129 258.053 570.129 250.8C570.129 243.632 571.665 237.317 574.737 231.856C577.894 226.309 582.161 222.085 587.537 219.184C592.913 216.197 598.929 214.704 605.585 214.704C612.241 214.704 618.257 216.197 623.633 219.184C629.009 222.085 633.233 226.267 636.305 231.728C639.462 237.189 641.041 243.547 641.041 250.8C641.041 258.053 639.42 264.453 636.177 270C633.02 275.461 628.71 279.685 623.249 282.672C617.788 285.659 611.729 287.152 605.073 287.152ZM605.073 276.912C609.254 276.912 613.18 275.931 616.849 273.968C620.518 272.005 623.462 269.061 625.681 265.136C627.985 261.211 629.137 256.432 629.137 250.8C629.137 245.168 628.028 240.389 625.809 236.464C623.59 232.539 620.689 229.637 617.105 227.76C613.521 225.797 609.638 224.816 605.457 224.816C601.19 224.816 597.265 225.797 593.681 227.76C590.182 229.637 587.366 232.539 585.233 236.464C583.1 240.389 582.033 245.168 582.033 250.8C582.033 256.517 583.057 261.339 585.105 265.264C587.238 269.189 590.054 272.133 593.553 274.096C597.052 275.973 600.892 276.912 605.073 276.912ZM690.532 214.576C699.065 214.576 705.977 217.179 711.268 222.384C716.559 227.504 719.204 234.928 719.204 244.656V286H707.684V246.32C707.684 239.323 705.935 233.989 702.436 230.32C698.937 226.565 694.159 224.688 688.1 224.688C681.956 224.688 677.049 226.608 673.38 230.448C669.796 234.288 668.004 239.877 668.004 247.216V286H656.356V215.856H668.004V225.84C670.308 222.256 673.423 219.483 677.348 217.52C681.359 215.557 685.753 214.576 690.532 214.576ZM763.063 287.152C757.687 287.152 752.866 286.256 748.599 284.464C744.332 282.587 740.962 280.027 738.487 276.784C736.012 273.456 734.647 269.659 734.391 265.392H746.423C746.764 268.891 748.386 271.749 751.287 273.968C754.274 276.187 758.156 277.296 762.935 277.296C767.372 277.296 770.871 276.315 773.431 274.352C775.991 272.389 777.271 269.915 777.271 266.928C777.271 263.856 775.906 261.595 773.175 260.144C770.444 258.608 766.22 257.115 760.503 255.664C755.298 254.299 751.031 252.933 747.703 251.568C744.46 250.117 741.644 248.027 739.255 245.296C736.951 242.48 735.799 238.811 735.799 234.288C735.799 230.704 736.866 227.419 738.999 224.432C741.132 221.445 744.162 219.099 748.087 217.392C752.012 215.6 756.492 214.704 761.527 214.704C769.292 214.704 775.564 216.667 780.343 220.592C785.122 224.517 787.682 229.893 788.023 236.72H776.375C776.119 233.051 774.626 230.107 771.895 227.888C769.25 225.669 765.666 224.56 761.143 224.56C756.962 224.56 753.634 225.456 751.159 227.248C748.684 229.04 747.447 231.387 747.447 234.288C747.447 236.592 748.172 238.512 749.623 240.048C751.159 241.499 753.036 242.693 755.255 243.632C757.559 244.485 760.716 245.467 764.727 246.576C769.762 247.941 773.858 249.307 777.015 250.672C780.172 251.952 782.86 253.915 785.079 256.56C787.383 259.205 788.578 262.661 788.663 266.928C788.663 270.768 787.596 274.224 785.463 277.296C783.33 280.368 780.3 282.8 776.375 284.592C772.535 286.299 768.098 287.152 763.063 287.152Z" fill="white"/>
<path d="M86 161H456V173H86V161Z" fill="white"/>
</svg>
